<svg xmlns="http://www.w3.org/2000/svg" width="1120" height="480" viewBox="0 0 1120 480" role="img" aria-labelledby="t"><title id="t">DL5's and VM7d's transforms with the projection neurons resting at 2.7 spikes/s and at about flies' rate, against flies', and eight measures as a share of flies' values before and after</title><style>
    text { font-family: -apple-system, BlinkMacSystemFont, 'Segoe UI', 'Noto Sans', Helvetica, Arial, sans-serif; }
    .lab { font-size: 16px; font-weight: 600; fill: #1f2328; }
    .val { font-size: 13px; font-weight: 600; fill: #1f2328; }
    .note { font-size: 13px; fill: #59636e; }
    .tick { font-size: 11px; fill: #59636e; }
    </style><rect width="1120" height="480" fill="#ffffff"/><text x="24.0" y="30.0" class="lab" text-anchor="start">Resting at flies' rate, the projection neurons answer weak input more as flies' do</text><text x="24.0" y="50.0" class="note" text-anchor="start">Left, middle: polished to flies' resting rate (about 5 spikes/s instead of 2.7), the PNs answer 1.2-1.4 times as strongly to weak input and keep more of strong</text><text x="24.0" y="68.0" class="note" text-anchor="start">responses, closer to flies' points. Right: most measures move toward flies' (1); 4-methylcyclohexanol's share barely moves.</text><text x="70.0" y="108.0" class="val" text-anchor="start">DL5's projection neurons, Olsen et al.'s protocol</text><line x1="70" y1="380.0" x2="360" y2="380.0" stroke="#d1d9e0" stroke-opacity="1"/><text x="62.0" y="384.0" class="tick" text-anchor="end">0</text><line x1="70" y1="307.8" x2="360" y2="307.8" stroke="#d1d9e0" stroke-opacity="0.5"/><text x="62.0" y="311.8" class="tick" text-anchor="end">50</text><line x1="70" y1="235.6" x2="360" y2="235.6" stroke="#d1d9e0" stroke-opacity="0.5"/><text x="62.0" y="239.6" class="tick" text-anchor="end">100</text><line x1="70" y1="163.3" x2="360" y2="163.3" stroke="#d1d9e0" stroke-opacity="0.5"/><text x="62.0" y="167.3" class="tick" text-anchor="end">150</text><text x="86.5" y="395.0" class="tick" text-anchor="middle">5</text><text x="137.9" y="395.0" class="tick" text-anchor="middle">10</text><text x="189.3" y="395.0" class="tick" text-anchor="middle">20</text><text x="257.2" y="395.0" class="tick" text-anchor="middle">50</text><text x="308.6" y="395.0" class="tick" text-anchor="middle">100</text><text x="360.0" y="395.0" class="tick" text-anchor="middle">200</text><text x="215.0" y="412.0" class="tick" text-anchor="middle">receptor neurons' rise (spikes/s)</text><path d="M70.0 340.2 L74.9 336.8 L79.8 333.2 L84.7 329.3 L89.7 325.2 L94.6 320.9 L99.5 316.3 L104.4 311.6 L109.3 306.6 L114.2 301.4 L119.2 296.1 L124.1 290.5 L129.0 284.9 L133.9 279.1 L138.8 273.2 L143.7 267.3 L148.6 261.3 L153.6 255.3 L158.5 249.3 L163.4 243.4 L168.3 237.5 L173.2 231.8 L178.1 226.2 L183.1 220.7 L188.0 215.4 L192.9 210.3 L197.8 205.4 L202.7 200.7 L207.6 196.3 L212.5 192.0 L217.5 188.0 L222.4 184.2 L227.3 180.7 L232.2 177.3 L237.1 174.2 L242.0 171.3 L246.9 168.6 L251.9 166.1 L256.8 163.8 L261.7 161.7 L266.6 159.7 L271.5 157.9 L276.4 156.2 L281.4 154.6 L286.3 153.2 L291.2 151.9 L296.1 150.7 L301.0 149.7 L305.9 148.7 L310.8 147.8 L315.8 147.0 L320.7 146.2 L325.6 145.5 L330.5 144.9 L335.4 144.3 L340.3 143.8 L345.3 143.3 L350.2 142.9 L355.1 142.5 L360.0 142.2" fill="none" stroke="#1f2328" stroke-width="1" stroke-opacity="0.7"/><circle cx="88.0" cy="316.2" r="4" fill="#ffffff" stroke="#1f2328" stroke-width="1.6"><title>flies: 44 at 5.1</title></circle><circle cx="159.6" cy="257.4" r="4" fill="#ffffff" stroke="#1f2328" stroke-width="1.6"><title>flies: 85 at 13.4</title></circle><circle cx="243.4" cy="165.4" r="4" fill="#ffffff" stroke="#1f2328" stroke-width="1.6"><title>flies: 149 at 41.5</title></circle><circle cx="307.6" cy="151.2" r="4" fill="#ffffff" stroke="#1f2328" stroke-width="1.6"><title>flies: 158 at 98.7</title></circle><path d="M86.5 350.8 L137.9 306.7 L189.3 266.0 L240.7 227.0 L292.1 206.8 L343.5 202.1" fill="none" stroke="#8c959f" stroke-width="2.2"/><circle cx="86.5" cy="350.8" r="3.2" fill="#8c959f"><title>resting at 2.7 spikes/s: 20 spikes/s at 5</title></circle><circle cx="137.9" cy="306.7" r="3.2" fill="#8c959f"><title>resting at 2.7 spikes/s: 51 spikes/s at 10</title></circle><circle cx="189.3" cy="266.0" r="3.2" fill="#8c959f"><title>resting at 2.7 spikes/s: 79 spikes/s at 20</title></circle><circle cx="240.7" cy="227.0" r="3.2" fill="#8c959f"><title>resting at 2.7 spikes/s: 106 spikes/s at 40</title></circle><circle cx="292.1" cy="206.8" r="3.2" fill="#8c959f"><title>resting at 2.7 spikes/s: 120 spikes/s at 80</title></circle><circle cx="343.5" cy="202.1" r="3.2" fill="#8c959f"><title>resting at 2.7 spikes/s: 123 spikes/s at 160</title></circle><path d="M86.5 339.1 L137.9 294.8 L189.3 254.2 L240.7 215.2 L292.1 191.5 L343.5 187.8" fill="none" stroke="#b8322a" stroke-width="2.2"/><circle cx="86.5" cy="339.1" r="3.2" fill="#b8322a"><title>at about flies' rate: 28 spikes/s at 5</title></circle><circle cx="137.9" cy="294.8" r="3.2" fill="#b8322a"><title>at about flies' rate: 59 spikes/s at 10</title></circle><circle cx="189.3" cy="254.2" r="3.2" fill="#b8322a"><title>at about flies' rate: 87 spikes/s at 20</title></circle><circle cx="240.7" cy="215.2" r="3.2" fill="#b8322a"><title>at about flies' rate: 114 spikes/s at 40</title></circle><circle cx="292.1" cy="191.5" r="3.2" fill="#b8322a"><title>at about flies' rate: 130 spikes/s at 80</title></circle><circle cx="343.5" cy="187.8" r="3.2" fill="#b8322a"><title>at about flies' rate: 133 spikes/s at 160</title></circle><text x="356.0" y="342.0" class="tick" text-anchor="end">grey: PNs resting at 2.7 spikes/s</text><text x="356.0" y="356.0" class="tick" text-anchor="end">red: at about flies' rate; rings: flies</text><text x="430.0" y="108.0" class="val" text-anchor="start">VM7d's projection neurons, Olsen et al.'s protocol</text><line x1="430" y1="380.0" x2="720" y2="380.0" stroke="#d1d9e0" stroke-opacity="1"/><text x="422.0" y="384.0" class="tick" text-anchor="end">0</text><line x1="430" y1="307.8" x2="720" y2="307.8" stroke="#d1d9e0" stroke-opacity="0.5"/><text x="422.0" y="311.8" class="tick" text-anchor="end">50</text><line x1="430" y1="235.6" x2="720" y2="235.6" stroke="#d1d9e0" stroke-opacity="0.5"/><text x="422.0" y="239.6" class="tick" text-anchor="end">100</text><line x1="430" y1="163.3" x2="720" y2="163.3" stroke="#d1d9e0" stroke-opacity="0.5"/><text x="422.0" y="167.3" class="tick" text-anchor="end">150</text><text x="446.5" y="395.0" class="tick" text-anchor="middle">5</text><text x="497.9" y="395.0" class="tick" text-anchor="middle">10</text><text x="549.3" y="395.0" class="tick" text-anchor="middle">20</text><text x="617.2" y="395.0" class="tick" text-anchor="middle">50</text><text x="668.6" y="395.0" class="tick" text-anchor="middle">100</text><text x="720.0" y="395.0" class="tick" text-anchor="middle">200</text><text x="575.0" y="412.0" class="tick" text-anchor="middle">receptor neurons' rise (spikes/s)</text><path d="M430.0 343.5 L434.9 340.4 L439.8 337.0 L444.7 333.4 L449.7 329.5 L454.6 325.5 L459.5 321.2 L464.4 316.7 L469.3 312.0 L474.2 307.1 L479.2 302.0 L484.1 296.7 L489.0 291.3 L493.9 285.7 L498.8 280.1 L503.7 274.3 L508.6 268.5 L513.6 262.6 L518.5 256.8 L523.4 251.0 L528.3 245.2 L533.2 239.5 L538.1 233.9 L543.1 228.5 L548.0 223.2 L552.9 218.1 L557.8 213.2 L562.7 208.4 L567.6 203.9 L572.5 199.6 L577.5 195.5 L582.4 191.7 L587.3 188.0 L592.2 184.6 L597.1 181.4 L602.0 178.4 L606.9 175.6 L611.9 173.0 L616.8 170.6 L621.7 168.4 L626.6 166.4 L631.5 164.5 L636.4 162.7 L641.4 161.1 L646.3 159.7 L651.2 158.3 L656.1 157.1 L661.0 156.0 L665.9 154.9 L670.8 154.0 L675.8 153.1 L680.7 152.3 L685.6 151.6 L690.5 151.0 L695.4 150.4 L700.3 149.8 L705.3 149.4 L710.2 148.9 L715.1 148.5 L720.0 148.1" fill="none" stroke="#1f2328" stroke-width="1" stroke-opacity="0.7"/><circle cx="508.9" cy="267.3" r="4" fill="#ffffff" stroke="#1f2328" stroke-width="1.6"><title>flies: 78 at 11.6</title></circle><circle cx="614.1" cy="180.2" r="4" fill="#ffffff" stroke="#1f2328" stroke-width="1.6"><title>flies: 138 at 47.9</title></circle><circle cx="673.7" cy="146.9" r="4" fill="#ffffff" stroke="#1f2328" stroke-width="1.6"><title>flies: 161 at 107.1</title></circle><path d="M446.5 354.4 L497.9 322.3 L549.3 272.8 L600.7 232.1 L652.1 208.1 L703.5 199.4" fill="none" stroke="#8c959f" stroke-width="2.2"/><circle cx="446.5" cy="354.4" r="3.2" fill="#8c959f"><title>resting at 2.7 spikes/s: 18 spikes/s at 5</title></circle><circle cx="497.9" cy="322.3" r="3.2" fill="#8c959f"><title>resting at 2.7 spikes/s: 40 spikes/s at 10</title></circle><circle cx="549.3" cy="272.8" r="3.2" fill="#8c959f"><title>resting at 2.7 spikes/s: 74 spikes/s at 20</title></circle><circle cx="600.7" cy="232.1" r="3.2" fill="#8c959f"><title>resting at 2.7 spikes/s: 102 spikes/s at 40</title></circle><circle cx="652.1" cy="208.1" r="3.2" fill="#8c959f"><title>resting at 2.7 spikes/s: 119 spikes/s at 80</title></circle><circle cx="703.5" cy="199.4" r="3.2" fill="#8c959f"><title>resting at 2.7 spikes/s: 125 spikes/s at 160</title></circle><path d="M446.5 345.0 L497.9 310.9 L549.3 259.1 L600.7 218.0 L652.1 192.0 L703.5 182.2" fill="none" stroke="#b8322a" stroke-width="2.2"/><circle cx="446.5" cy="345.0" r="3.2" fill="#b8322a"><title>at about flies' rate: 24 spikes/s at 5</title></circle><circle cx="497.9" cy="310.9" r="3.2" fill="#b8322a"><title>at about flies' rate: 48 spikes/s at 10</title></circle><circle cx="549.3" cy="259.1" r="3.2" fill="#b8322a"><title>at about flies' rate: 84 spikes/s at 20</title></circle><circle cx="600.7" cy="218.0" r="3.2" fill="#b8322a"><title>at about flies' rate: 112 spikes/s at 40</title></circle><circle cx="652.1" cy="192.0" r="3.2" fill="#b8322a"><title>at about flies' rate: 130 spikes/s at 80</title></circle><circle cx="703.5" cy="182.2" r="3.2" fill="#b8322a"><title>at about flies' rate: 137 spikes/s at 160</title></circle><text x="716.0" y="342.0" class="tick" text-anchor="end">grey: PNs resting at 2.7 spikes/s</text><text x="716.0" y="356.0" class="tick" text-anchor="end">red: at about flies' rate; rings: flies</text><text x="790.0" y="108.0" class="val" text-anchor="start">the model as a share of flies' value</text><line x1="955.5" y1="120.0" x2="955.5" y2="380.0" stroke="#d1d9e0" stroke-opacity="0.5"/><text x="955.5" y="395.0" class="tick" text-anchor="middle">0.25</text><line x1="1003.7" y1="120.0" x2="1003.7" y2="380.0" stroke="#d1d9e0" stroke-opacity="0.5"/><text x="1003.7" y="395.0" class="tick" text-anchor="middle">0.5</text><line x1="1051.8" y1="120.0" x2="1051.8" y2="380.0" stroke="#d1d9e0" stroke-opacity="1"/><text x="1051.8" y="395.0" class="tick" text-anchor="middle">1</text><line x1="1100.0" y1="120.0" x2="1100.0" y2="380.0" stroke="#d1d9e0" stroke-opacity="0.5"/><text x="1100.0" y="395.0" class="tick" text-anchor="middle">2</text><text x="1051.8" y="412.0" class="tick" text-anchor="middle">1 = flies</text><text x="932.0" y="140.2" class="tick" text-anchor="end">DL5 at 5 spikes/s</text><line x1="1011.4" y1="136.2" x2="1034.9" y2="136.2" stroke="#8c959f" stroke-width="1.6"/><circle cx="1011.4" cy="136.2" r="4.5" fill="#8c959f"><title>DL5 at 5: 0.56 of flies' before</title></circle><circle cx="1034.9" cy="136.2" r="5" fill="#b8322a" stroke="#ffffff" stroke-width="2"><title>DL5 at 5: 0.78 of flies' now</title></circle><text x="932.0" y="172.8" class="tick" text-anchor="end">DL5 at 10 spikes/s</text><line x1="1026.4" y1="168.8" x2="1036.9" y2="168.8" stroke="#8c959f" stroke-width="1.6"/><circle cx="1026.4" cy="168.8" r="4.5" fill="#8c959f"><title>DL5 at 10: 0.69 of flies' before</title></circle><circle cx="1036.9" cy="168.8" r="5" fill="#b8322a" stroke="#ffffff" stroke-width="2"><title>DL5 at 10: 0.81 of flies' now</title></circle><text x="932.0" y="205.2" class="tick" text-anchor="end">Rmax</text><line x1="1025.2" y1="201.2" x2="1030.3" y2="201.2" stroke="#8c959f" stroke-width="1.6"/><circle cx="1025.2" cy="201.2" r="4.5" fill="#8c959f"><title>Rmax: 0.68 of flies' before</title></circle><circle cx="1030.3" cy="201.2" r="5" fill="#b8322a" stroke="#ffffff" stroke-width="2"><title>Rmax: 0.73 of flies' now</title></circle><text x="932.0" y="237.8" class="tick" text-anchor="end">sigma (below 1: steeper)</text><line x1="1061.6" y1="233.8" x2="1053.5" y2="233.8" stroke="#8c959f" stroke-width="1.6"/><circle cx="1061.6" cy="233.8" r="4.5" fill="#8c959f"><title>sigma: 1.15 of flies' before</title></circle><circle cx="1053.5" cy="233.8" r="5" fill="#b8322a" stroke="#ffffff" stroke-width="2"><title>sigma: 1.02 of flies' now</title></circle><text x="932.0" y="270.2" class="tick" text-anchor="end">kept at 500 ms</text><line x1="1036.5" y1="266.2" x2="1047.8" y2="266.2" stroke="#8c959f" stroke-width="1.6"/><circle cx="1036.5" cy="266.2" r="4.5" fill="#8c959f"><title>late/peak: 0.80 of flies' before</title></circle><circle cx="1047.8" cy="266.2" r="5" fill="#b8322a" stroke="#ffffff" stroke-width="2"><title>late/peak: 0.94 of flies' now</title></circle><text x="932.0" y="302.8" class="tick" text-anchor="end">MBON11, 3-octanol</text><line x1="944.8" y1="298.8" x2="980.1" y2="298.8" stroke="#8c959f" stroke-width="1.6"/><circle cx="944.8" cy="298.8" r="4.5" fill="#8c959f"><title>MBON11: 0.21 of flies' before</title></circle><circle cx="980.1" cy="298.8" r="5" fill="#b8322a" stroke="#ffffff" stroke-width="2"><title>MBON11: 0.36 of flies' now</title></circle><text x="932.0" y="335.2" class="tick" text-anchor="end">MCH/OCT, Kenyon cells</text><line x1="969.4" y1="331.2" x2="978.1" y2="331.2" stroke="#8c959f" stroke-width="1.6"/><circle cx="969.4" cy="331.2" r="4.5" fill="#8c959f"><title>KC ratio: 0.31 of flies' before</title></circle><circle cx="978.1" cy="331.2" r="5" fill="#b8322a" stroke="#ffffff" stroke-width="2"><title>KC ratio: 0.35 of flies' now</title></circle><text x="932.0" y="367.8" class="tick" text-anchor="end">MCH/OCT, PNs (weighed)</text><line x1="1006.2" y1="363.8" x2="1013.6" y2="363.8" stroke="#8c959f" stroke-width="1.6"/><circle cx="1006.2" cy="363.8" r="4.5" fill="#8c959f"><title>PN ratio: 0.52 of flies' before</title></circle><circle cx="1013.6" cy="363.8" r="5" fill="#b8322a" stroke="#ffffff" stroke-width="2"><title>PN ratio: 0.58 of flies' now</title></circle></svg>